<svg xmlns="http://www.w3.org/2000/svg" viewBox="0 0 140 140" width="140" height="140">
  <defs>
    <filter id="wobble">
      <feTurbulence type="fractalNoise" baseFrequency="0.06" numOctaves="2" result="noise"/>
      <feDisplacementMap in="SourceGraphic" in2="noise" scale="3"/>
    </filter>
  </defs>
  <g filter="url(#wobble)" stroke="#2d3436" stroke-width="3" stroke-linecap="round" fill="#f7d794">
    <path d="M30 110 L35 60 Q35 45 48 40 Q60 36 68 48 L68 110 Z"/>
    <path d="M45 55 L45 30 Q45 20 52 18 Q58 20 58 32 L58 55"/>
    <path d="M55 58 L55 28 Q55 18 62 16 Q68 18 68 30 L68 58"/>
    <path d="M65 60 L65 32 Q65 22 72 20 Q78 22 78 34 L78 60"/>
    <path d="M75 62 L75 36 Q75 26 82 24 Q88 26 88 38 L88 62"/>
    <path d="M72 110 L72 70 Q80 65 88 72 Q92 85 85 95 L82 110 Z"/>
  </g>
</svg>
